<svg enable-background="new 0 0 106.7 50.9" viewBox="0 0 106.7 50.9" xmlns="http://www.w3.org/2000/svg"><path d="m96 14.8h-7.4c-3 0-4.5-1.1-4.5-3.3s1.5-3.3 4.6-3.3h18.1v-8.2h-25.7c-7.1 0-10.7 3.6-10.7 10.7v2.1c0 7.1 3.6 10.7 10.7 10.7h7.4c3 0 4.5 1.1 4.5 3.3s-1.5 3.3-4.6 3.3h-37v-6.9h16.2v-8.2h-16.2v-6.8h18.9v-8.2h-59.6c-7.1 0-10.7 3.6-10.7 10.7v2.1c0 7.2 3.6 10.7 10.7 10.8h7.4c3 0 4.5 1.1 4.5 3.3s-1.5 3.3-4.6 3.3l-18-.1v8.2h25.6c4.7 0 7.8-1.6 9.4-4.7v4.7h60.9c7.1 0 10.7-3.6 10.7-10.7v-2.1c.1-7.1-3.5-10.7-10.6-10.7zm-60.9 18.8v-15h-8.9l8.9-18.6v15h8.9z" fill="#09195c"/><path d="m0 48.8.8-.2c.3 1 1.1 1.5 2.2 1.5.6 0 1-.1 1.3-.4.3-.2.4-.6.4-1 0-.3-.1-.6-.3-.8s-.5-.3-.8-.4l-1.5-.4c-.4-.1-.7-.2-.9-.4-.2-.1-.5-.4-.6-.6-.2-.3-.3-.6-.3-1 0-.6.2-1.1.7-1.5s1.1-.6 1.8-.6c1.3 0 2.2.6 2.7 1.8l-.8.3c-.1-.4-.3-.8-.7-1s-.7-.3-1.2-.3c-.4 0-.8.1-1.1.3s-.5.5-.5.9c0 .5.4.9 1.2 1.1l1.4.3c1.3.3 1.9 1 1.9 2 0 .6-.2 1.2-.7 1.6s-1.1.6-2 .6c-1.5.3-2.5-.4-3-1.8zm14.4 1.9h-.8v-3.4c0-.4 0-.6-.1-.8 0-.2-.2-.3-.4-.5-.2-.1-.4-.2-.6-.2-.3 0-.6.1-.9.4s-.5.8-.5 1.4v3.1h-.8v-3.6c0-.5-.1-.8-.3-1s-.5-.3-.7-.3c-.4 0-.7.2-.9.5-.4.3-.5.7-.5 1.1v3.3h-.8v-5.5h.7v1.1c.4-.8 1-1.2 1.7-1.2.4 0 .7.1 1 .4s.5.6.5.9c.4-.9 1-1.3 1.7-1.3.4 0 .7.1 1 .3s.5.5.5.7c.1.3.1.7.1 1.2zm6 0h-.8c0-.2-.1-.5-.1-1-.4.8-1 1.1-1.9 1.1-.6 0-1.1-.2-1.4-.5s-.5-.7-.5-1.2c0-.6.2-1 .7-1.4s1.3-.5 2.4-.5h.7c0-.4 0-.7-.1-.9s-.2-.3-.4-.4-.5-.2-.9-.2c-.9 0-1.4.3-1.5 1l-.8-.1c.2-1 1-1.5 2.4-1.5.8 0 1.3.2 1.6.5s.5.9.5 1.7v2.3c0 .4.1.8.1 1.1zm-.9-2.7h-.8c-.7 0-1.2.1-1.6.3s-.6.5-.6 1c0 .3.1.5.3.7s.5.3.9.3c.5 0 .9-.2 1.3-.6.3-.4.5-.8.5-1.3zm3.4 2.7h-.9v-5.5h.8v1.3c.3-.6.5-1 .8-1.2s.5-.3.8-.3h.3v.8h-.2c-.5 0-.9.2-1.2.5-.3.4-.5.8-.5 1.4zm5.7-.6v.7c-.3 0-.6.1-.8.1-1.1 0-1.6-.6-1.6-1.7v-3.3h-1v-.7h1v-1.4l.8-.1v1.5h1.2v.7h-1.2v3.4c0 .6.3.8.9.8.2.1.4.1.7 0zm8.6-.2v.8h-4.8v-7.4h4.7v.8h-3.8v2.4h3v.8h-3v2.7zm2 .8h-.9v-7.4h.9zm5.4-1.6.8.2c-.1.5-.4.9-.8 1.2s-.9.5-1.5.5c-.7 0-1.4-.3-1.8-.8-.5-.5-.7-1.2-.7-2.1s.2-1.6.7-2.1 1.1-.8 1.8-.8 1.3.2 1.7.7.7 1.2.7 2.2h-4c0 .8.2 1.4.5 1.7s.7.4 1.1.4c.7 0 1.2-.4 1.5-1.1zm-.1-1.7c0-.3-.1-.6-.2-.8s-.3-.4-.5-.6-.5-.3-.8-.3c-.4 0-.8.2-1.1.5s-.5.7-.5 1.2zm5.5 1.4.8.1c-.1.6-.3 1.1-.7 1.4s-.8.5-1.4.5c-.8 0-1.3-.3-1.7-.8-.4-.6-.6-1.2-.6-2s.2-1.5.6-2.1 1-.8 1.7-.8c.6 0 1.1.2 1.4.5.4.4.6.8.7 1.4l-.8.1c-.1-.9-.6-1.4-1.3-1.4-.5 0-.8.2-1.1.6s-.4.9-.4 1.6.1 1.2.4 1.6.6.6 1.1.6c.6.1 1.1-.4 1.3-1.3zm4.4 1.3v.7c-.3 0-.6.1-.8.1-1.1 0-1.6-.6-1.6-1.7v-3.3h-1v-.7h1v-1.4l.8-.1v1.5h1.2v.7h-1.2v3.4c0 .6.3.8.9.8.2.1.5.1.7 0zm1.8.6h-.9v-5.5h.8v1.3c.3-.6.5-1 .8-1.2s.5-.3.8-.3h.3v.8h-.2c-.5 0-.9.2-1.2.5-.3.4-.5.8-.5 1.4zm3.7-7.4v1h-.9v-1zm0 1.9v5.5h-.9v-5.5zm4.9 3.6.8.1c-.1.6-.4 1.1-.7 1.4-.4.3-.8.5-1.4.5-.8 0-1.3-.3-1.7-.8-.4-.6-.6-1.2-.6-2s.2-1.5.6-2.1 1-.8 1.7-.8c.6 0 1.1.2 1.4.5.4.4.6.8.7 1.4l-.8.1c-.1-.9-.6-1.4-1.3-1.4-.5 0-.8.2-1.1.6s-.4.9-.4 1.6.1 1.2.4 1.6.6.6 1.1.6c.7.1 1.1-.4 1.3-1.3zm4 0 .8-.2c.3 1 1.1 1.5 2.2 1.5.6 0 1-.1 1.3-.4.3-.2.4-.6.4-1 0-.3-.1-.6-.3-.8s-.5-.3-.8-.4l-1.4-.3c-.4-.1-.7-.2-.9-.4-.2-.1-.5-.4-.6-.6-.2-.3-.3-.6-.3-1 0-.6.2-1.1.7-1.5s1.1-.6 1.8-.6c1.3 0 2.2.6 2.7 1.8l-.8.3c-.1-.4-.3-.8-.7-1s-.7-.3-1.2-.3c-.4 0-.8.1-1.1.3s-.5.5-.5.9c0 .5.4.9 1.2 1.1l1.4.3c1.3.3 1.9 1 1.9 2 0 .6-.2 1.2-.7 1.6s-1.1.6-2 .6c-1.6.2-2.6-.5-3.1-1.9zm9 2.1c-.8 0-1.3-.3-1.8-.8-.4-.6-.6-1.3-.6-2.1 0-.9.2-1.6.7-2.1s1.1-.8 1.8-.8c.8 0 1.4.3 1.8.8s.7 1.2.7 2.1-.2 1.6-.7 2.1-1.1.8-1.9.8zm.1-.7c.4 0 .8-.2 1.1-.5.3-.4.4-.9.4-1.7s-.2-1.3-.5-1.7c-.3-.3-.7-.5-1.1-.5s-.8.2-1.1.5-.4.9-.4 1.6c0 .8.1 1.4.4 1.7.4.4.8.6 1.2.6zm4.6.5h-.9v-7.4h.9zm6 0h-.8v-1c-.4.8-1 1.2-1.7 1.2-.6 0-1-.2-1.3-.6s-.5-.9-.5-1.6v-3.5h.9v3.5c0 .5.1.9.3 1.1s.5.3.7.3c.3 0 .5-.1.7-.2.2-.2.4-.4.6-.7.1-.3.2-.6.2-.9v-3.1h.9zm4.2-.6v.7c-.3 0-.6.1-.8.1-1.1 0-1.6-.6-1.6-1.7v-3.3h-1v-.7h1v-1.4l.8-.1v1.5h1.2v.7h-1.2v3.4c0 .6.3.8.9.8.2.1.5.1.7 0zm1.8-6.8v1h-.9v-1zm0 1.9v5.5h-.9v-5.5zm3.7 5.7c-.8 0-1.3-.3-1.8-.8-.4-.6-.6-1.3-.6-2.1 0-.9.2-1.6.7-2.1s1.1-.8 1.8-.8c.8 0 1.4.3 1.8.8s.7 1.2.7 2.1-.2 1.6-.7 2.1c-.6.5-1.2.8-1.9.8zm0-.7c.4 0 .8-.2 1.1-.5.3-.4.4-.9.4-1.7s-.2-1.3-.5-1.7c-.3-.3-.7-.5-1.1-.5s-.8.2-1.1.5-.4.9-.4 1.6c0 .8.1 1.4.4 1.7.4.4.8.6 1.2.6zm8.1.5h-.8v-3.5c0-.5-.1-.9-.3-1.1s-.5-.3-.8-.3c-.4 0-.8.2-1.1.5s-.4.8-.4 1.4v3h-.9v-5.5h.8v1c.4-.8 1-1.2 1.7-1.2.4 0 .8.1 1 .3.3.2.5.5.6.7.1.3.2.7.2 1.4z" fill="#f36f21"/></svg>